<svg width="327" height="330" viewBox="0 0 327 330" fill="none" xmlns="http://www.w3.org/2000/svg">
<g clip-path="url(#clip0_48_247)">
<rect y="47" width="327" height="1" fill="#DBD8D7"/>
<path d="M17.321 29H18.642V24.1207H23.3722V22.9489H18.642V19.2628H23.8622V18.0909H17.321V29ZM30.5978 25.6548C30.5978 27.1889 29.426 27.892 28.4885 27.892C27.4444 27.892 26.6987 27.125 26.6987 25.9318V20.8182H25.4416V26.017C25.4416 28.1051 26.5495 29.1065 28.0836 29.1065C29.3194 29.1065 30.1291 28.446 30.5126 27.6151H30.5978V29H31.8549V20.8182H30.5978V25.6548ZM35.4145 18.0909H34.1574V29H35.4145V18.0909ZM38.9741 18.0909H37.717V29H38.9741V18.0909ZM46.7524 24.0781C46.7524 22.6506 47.6366 21.8409 48.8405 21.8409C50.007 21.8409 50.7155 22.6026 50.7155 23.8864V29H51.9726V23.8011C51.9726 21.7131 50.8593 20.7116 49.2027 20.7116C47.9669 20.7116 47.1998 21.2656 46.8163 22.0966H46.7098V20.8182H45.4953V29H46.7524V24.0781ZM56.6774 29.1918C58.1049 29.1918 58.8507 28.4247 59.1064 27.892H59.1703V29H60.4274V23.6094C60.4274 21.0099 58.4458 20.7116 57.4018 20.7116C56.166 20.7116 54.7598 21.1378 54.1206 22.6293L55.3137 23.0554C55.5907 22.4588 56.2459 21.8196 57.4444 21.8196C58.6003 21.8196 59.1703 22.4322 59.1703 23.4815V23.5241C59.1703 24.1314 58.5524 24.0781 57.0609 24.2699C55.5428 24.467 53.8862 24.8026 53.8862 26.6776C53.8862 28.2756 55.122 29.1918 56.6774 29.1918ZM56.8691 28.0625C55.8677 28.0625 55.1433 27.6151 55.1433 26.7415C55.1433 25.7827 56.0169 25.4844 56.997 25.3565C57.5297 25.2926 58.9572 25.1435 59.1703 24.8878V26.0384C59.1703 27.0611 58.3606 28.0625 56.8691 28.0625ZM62.7219 29H63.979V23.8864C63.979 22.6879 64.8525 21.8409 65.8327 21.8409C66.7861 21.8409 67.452 22.4641 67.452 23.3963V29H68.7304V23.6733C68.7304 22.6186 69.3909 21.8409 70.5415 21.8409C71.4363 21.8409 72.2034 22.315 72.2034 23.5241V29H73.4605V23.5241C73.4605 21.6012 72.4271 20.7116 70.9676 20.7116C69.7957 20.7116 68.9381 21.2496 68.5173 22.0966H68.4321C68.0273 21.223 67.3135 20.7116 66.2375 20.7116C65.1721 20.7116 64.3838 21.223 64.0429 22.0966H63.9363V20.8182H62.7219V29ZM79.1894 29.1705C80.8513 29.1705 82.0658 28.3395 82.4493 27.1037L81.2348 26.7628C80.9152 27.6151 80.1748 28.0412 79.1894 28.0412C77.7139 28.0412 76.6965 27.0877 76.6379 25.3352H82.5771V24.8026C82.5771 21.7557 80.7661 20.7116 79.0615 20.7116C76.8456 20.7116 75.3754 22.4588 75.3754 24.973C75.3754 27.4872 76.8243 29.1705 79.1894 29.1705ZM76.6379 24.2486C76.7231 22.9755 77.6233 21.8409 79.0615 21.8409C80.4252 21.8409 81.2987 22.8636 81.2987 24.2486H76.6379Z" fill="#979493"/>
<rect y="119" width="327" height="1" fill="#DBD8D7"/>
<path d="M17.321 101H23.9901V99.8281H18.642V96.1207H23.5639V94.9489H18.642V91.2628H23.9048V90.0909H17.321V101ZM26.1154 101H27.3725V95.8864C27.3725 94.6879 28.2461 93.8409 29.2262 93.8409C30.1797 93.8409 30.8455 94.4641 30.8455 95.3963V101H32.1239V95.6733C32.1239 94.6186 32.7844 93.8409 33.935 93.8409C34.8299 93.8409 35.5969 94.315 35.5969 95.5241V101H36.854V95.5241C36.854 93.6012 35.8207 92.7116 34.3612 92.7116C33.1893 92.7116 32.3317 93.2496 31.9109 94.0966H31.8256C31.4208 93.223 30.707 92.7116 29.631 92.7116C28.5657 92.7116 27.7773 93.223 27.4364 94.0966H27.3299V92.8182H26.1154V101ZM41.5602 101.192C42.9877 101.192 43.7335 100.425 43.9892 99.892H44.0531V101H45.3102V95.6094C45.3102 93.0099 43.3287 92.7116 42.2846 92.7116C41.0488 92.7116 39.6426 93.1378 39.0034 94.6293L40.1966 95.0554C40.4735 94.4588 41.1287 93.8196 42.3272 93.8196C43.4831 93.8196 44.0531 94.4322 44.0531 95.4815V95.5241C44.0531 96.1314 43.4352 96.0781 41.9437 96.2699C40.4256 96.467 38.769 96.8026 38.769 98.6776C38.769 100.276 40.0048 101.192 41.5602 101.192ZM41.752 100.062C40.7505 100.062 40.0261 99.6151 40.0261 98.7415C40.0261 97.7827 40.8997 97.4844 41.8798 97.3565C42.4125 97.2926 43.84 97.1435 44.0531 96.8878V98.0384C44.0531 99.0611 43.2434 100.062 41.752 100.062ZM47.6047 101H48.8618V92.8182H47.6047V101ZM48.2439 91.4545C48.7339 91.4545 49.1388 91.071 49.1388 90.6023C49.1388 90.1335 48.7339 89.75 48.2439 89.75C47.7538 89.75 47.349 90.1335 47.349 90.6023C47.349 91.071 47.7538 91.4545 48.2439 91.4545ZM52.4213 90.0909H51.1642V101H52.4213V90.0909ZM61.3502 101.192C62.7778 101.192 63.5235 100.425 63.7792 99.892H63.8431V101H65.1002V95.6094C65.1002 93.0099 63.1187 92.7116 62.0747 92.7116C60.8389 92.7116 59.4326 93.1378 58.7934 94.6293L59.9866 95.0554C60.2636 94.4588 60.9188 93.8196 62.1173 93.8196C63.2732 93.8196 63.8431 94.4322 63.8431 95.4815V95.5241C63.8431 96.1314 63.2252 96.0781 61.7338 96.2699C60.2156 96.467 58.559 96.8026 58.559 98.6776C58.559 100.276 59.7948 101.192 61.3502 101.192ZM61.542 100.062C60.5406 100.062 59.8161 99.6151 59.8161 98.7415C59.8161 97.7827 60.6897 97.4844 61.6698 97.3565C62.2025 97.2926 63.6301 97.1435 63.8431 96.8878V98.0384C63.8431 99.0611 63.0335 100.062 61.542 100.062ZM70.4842 101.17C72.0609 101.17 72.5936 100.19 72.8706 99.7429H73.0197V101H74.2342V90.0909H72.9771V94.1179H72.8706C72.5936 93.6918 72.1035 92.7116 70.5055 92.7116C68.4387 92.7116 67.0112 94.3523 67.0112 96.9304C67.0112 99.5298 68.4387 101.17 70.4842 101.17ZM70.6547 100.041C69.0779 100.041 68.2683 98.6562 68.2683 96.9091C68.2683 95.1832 69.0566 93.8409 70.6547 93.8409C72.1887 93.8409 72.9984 95.0767 72.9984 96.9091C72.9984 98.7628 72.1674 100.041 70.6547 100.041ZM79.8006 101.17C81.3773 101.17 81.91 100.19 82.187 99.7429H82.3361V101H83.5506V90.0909H82.2935V94.1179H82.187C81.91 93.6918 81.4199 92.7116 79.8219 92.7116C77.7551 92.7116 76.3276 94.3523 76.3276 96.9304C76.3276 99.5298 77.7551 101.17 79.8006 101.17ZM79.9711 100.041C78.3944 100.041 77.5847 98.6562 77.5847 96.9091C77.5847 95.1832 78.373 93.8409 79.9711 93.8409C81.5051 93.8409 82.3148 95.0767 82.3148 96.9091C82.3148 98.7628 81.4838 100.041 79.9711 100.041ZM86.0275 101H87.2846V95.8224C87.2846 94.7145 88.1582 93.9048 89.3514 93.9048C89.687 93.9048 90.0332 93.9688 90.1184 93.9901V92.7116C89.9746 92.701 89.6444 92.6903 89.4579 92.6903C88.4778 92.6903 87.6255 93.2443 87.3272 94.054H87.242V92.8182H86.0275V101ZM94.79 101.17C96.4519 101.17 97.6664 100.339 98.0499 99.1037L96.8354 98.7628C96.5158 99.6151 95.7754 100.041 94.79 100.041C93.3145 100.041 92.2971 99.0877 92.2385 97.3352H98.1777V96.8026C98.1777 93.7557 96.3667 92.7116 94.6621 92.7116C92.4462 92.7116 90.976 94.4588 90.976 96.973C90.976 99.4872 92.4249 101.17 94.79 101.17ZM92.2385 96.2486C92.3237 94.9755 93.2239 93.8409 94.6621 93.8409C96.0257 93.8409 96.8993 94.8636 96.8993 96.2486H92.2385ZM105.885 94.6506C105.491 93.4893 104.607 92.7116 102.988 92.7116C101.262 92.7116 99.9835 93.6918 99.9835 95.0767C99.9835 96.206 100.655 96.9624 102.157 97.3139L103.52 97.6335C104.346 97.8253 104.735 98.2195 104.735 98.7841C104.735 99.4872 103.989 100.062 102.817 100.062C101.789 100.062 101.145 99.6204 100.921 98.7415L99.7278 99.0398C100.021 100.43 101.166 101.17 102.839 101.17C104.74 101.17 106.035 100.132 106.035 98.7202C106.035 97.5803 105.321 96.8612 103.861 96.5043L102.647 96.206C101.677 95.9663 101.241 95.6413 101.241 95.0128C101.241 94.3097 101.986 93.7983 102.988 93.7983C104.085 93.7983 104.538 94.4055 104.756 94.9702L105.885 94.6506ZM113.722 94.6506C113.328 93.4893 112.444 92.7116 110.825 92.7116C109.099 92.7116 107.82 93.6918 107.82 95.0767C107.82 96.206 108.492 96.9624 109.994 97.3139L111.357 97.6335C112.183 97.8253 112.572 98.2195 112.572 98.7841C112.572 99.4872 111.826 100.062 110.654 100.062C109.626 100.062 108.982 99.6204 108.758 98.7415L107.565 99.0398C107.858 100.43 109.003 101.17 110.676 101.17C112.577 101.17 113.872 100.132 113.872 98.7202C113.872 97.5803 113.158 96.8612 111.698 96.5043L110.484 96.206C109.514 95.9663 109.078 95.6413 109.078 95.0128C109.078 94.3097 109.823 93.7983 110.825 93.7983C111.922 93.7983 112.375 94.4055 112.593 94.9702L113.722 94.6506Z" fill="#979493"/>
<rect y="144" width="327" height="114" fill="#FBF8F7"/>
<path d="M13.321 173H19.9901V171.828H14.642V168.121H19.5639V166.949H14.642V163.263H19.9048V162.091H13.321V173ZM23.3725 168.078C23.3725 166.651 24.2567 165.841 25.4606 165.841C26.6271 165.841 27.3356 166.603 27.3356 167.886V173H28.5927V167.801C28.5927 165.713 27.4794 164.712 25.8228 164.712C24.587 164.712 23.82 165.266 23.4364 166.097H23.3299V164.818H22.1154V173H23.3725V168.078ZM34.4481 164.818H32.7009V162.858H31.4438V164.818H30.208V165.884H31.4438V170.997C31.4438 172.425 32.5944 173.107 33.6597 173.107C34.1285 173.107 34.4268 173.021 34.5972 172.957L34.3415 171.828C34.235 171.849 34.0645 171.892 33.7876 171.892C33.2336 171.892 32.7009 171.722 32.7009 170.656V165.884H34.4481V164.818ZM39.6816 173.17C41.3435 173.17 42.558 172.339 42.9415 171.104L41.727 170.763C41.4074 171.615 40.667 172.041 39.6816 172.041C38.2061 172.041 37.1887 171.088 37.1301 169.335H43.0693V168.803C43.0693 165.756 41.2583 164.712 39.5537 164.712C37.3378 164.712 35.8676 166.459 35.8676 168.973C35.8676 171.487 37.3165 173.17 39.6816 173.17ZM37.1301 168.249C37.2153 166.975 38.1155 165.841 39.5537 165.841C40.9173 165.841 41.7909 166.864 41.7909 168.249H37.1301ZM44.9816 173H46.2387V167.822C46.2387 166.714 47.1123 165.905 48.3055 165.905C48.6411 165.905 48.9873 165.969 49.0725 165.99V164.712C48.9287 164.701 48.5985 164.69 48.412 164.69C47.4319 164.69 46.5796 165.244 46.2813 166.054H46.1961V164.818H44.9816V173ZM58.3397 164.818H56.5925V162.858H55.3354V164.818H54.0996V165.884H55.3354V170.997C55.3354 172.425 56.486 173.107 57.5513 173.107C58.0201 173.107 58.3184 173.021 58.4888 172.957L58.2331 171.828C58.1266 171.849 57.9561 171.892 57.6792 171.892C57.1252 171.892 56.5925 171.722 56.5925 170.656V165.884H58.3397V164.818ZM63.5732 173.17C65.2351 173.17 66.4496 172.339 66.8331 171.104L65.6186 170.763C65.299 171.615 64.5586 172.041 63.5732 172.041C62.0977 172.041 61.0803 171.088 61.0217 169.335H66.9609V168.803C66.9609 165.756 65.1499 164.712 63.4453 164.712C61.2294 164.712 59.7592 166.459 59.7592 168.973C59.7592 171.487 61.2081 173.17 63.5732 173.17ZM61.0217 168.249C61.1069 166.975 62.0071 165.841 63.4453 165.841C64.8089 165.841 65.6825 166.864 65.6825 168.249H61.0217ZM69.591 164.818H68.1421L70.7416 168.909L68.1421 173H69.591L71.5512 169.825L73.5115 173H74.9603L72.3183 168.909L74.9603 164.818H73.5115L71.5512 168.163L69.591 164.818ZM80.3123 164.818H78.5652V162.858H77.3081V164.818H76.0723V165.884H77.3081V170.997C77.3081 172.425 78.4586 173.107 79.524 173.107C79.9927 173.107 80.291 173.021 80.4615 172.957L80.2058 171.828C80.0993 171.849 79.9288 171.892 79.6518 171.892C79.0978 171.892 78.5652 171.722 78.5652 170.656V165.884H80.3123V164.818ZM87.6792 168.078C87.6792 166.651 88.59 165.841 89.8311 165.841C91.0137 165.841 91.7275 166.587 91.7275 167.886V173H92.9846V167.801C92.9846 165.697 91.8659 164.712 90.1934 164.712C88.9043 164.712 88.1692 165.25 87.7857 166.097H87.6792V162.091H86.4221V173H87.6792V168.078ZM98.7148 173.17C100.377 173.17 101.591 172.339 101.975 171.104L100.76 170.763C100.441 171.615 99.7002 172.041 98.7148 172.041C97.2393 172.041 96.2219 171.088 96.1633 169.335H102.103V168.803C102.103 165.756 100.291 164.712 98.5869 164.712C96.371 164.712 94.9008 166.459 94.9008 168.973C94.9008 171.487 96.3497 173.17 98.7148 173.17ZM96.1633 168.249C96.2485 166.975 97.1487 165.841 98.5869 165.841C99.9506 165.841 100.824 166.864 100.824 168.249H96.1633ZM104.015 173H105.272V167.822C105.272 166.714 106.146 165.905 107.339 165.905C107.674 165.905 108.021 165.969 108.106 165.99V164.712C107.962 164.701 107.632 164.69 107.445 164.69C106.465 164.69 105.613 165.244 105.315 166.054H105.229V164.818H104.015V173ZM112.777 173.17C114.439 173.17 115.654 172.339 116.037 171.104L114.823 170.763C114.503 171.615 113.763 172.041 112.777 172.041C111.302 172.041 110.284 171.088 110.226 169.335H116.165V168.803C116.165 165.756 114.354 164.712 112.649 164.712C110.434 164.712 108.963 166.459 108.963 168.973C108.963 171.487 110.412 173.17 112.777 173.17ZM110.226 168.249C110.311 166.975 111.211 165.841 112.649 165.841C114.013 165.841 114.887 166.864 114.887 168.249H110.226Z" fill="#3C3A39"/>
<path fill-rule="evenodd" clip-rule="evenodd" d="M309.793 248.793C309.402 249.183 309.402 249.817 309.793 250.207C310.183 250.598 310.817 250.598 311.207 250.207L319.207 242.207C319.598 241.817 319.598 241.183 319.207 240.793C318.817 240.402 318.183 240.402 317.793 240.793L309.793 248.793ZM314.293 249.293C313.902 249.683 313.902 250.317 314.293 250.707C314.683 251.098 315.317 251.098 315.707 250.707L319.707 246.707C320.098 246.317 320.098 245.683 319.707 245.293C319.317 244.902 318.683 244.902 318.293 245.293L314.293 249.293Z" fill="#6F6C6B"/>
<rect width="131" height="48" transform="translate(98 282)" fill="#FF6B00"/>
<path d="M119.532 303.633H122.188C121.85 301.188 119.695 299.467 116.9 299.467C113.634 299.467 111.117 301.822 111.117 305.83C111.117 309.742 113.471 312.169 116.954 312.169C120.076 312.169 122.303 310.195 122.303 306.941V305.384H117.129V307.352H119.786C119.75 308.885 118.705 309.857 116.966 309.857C115.004 309.857 113.767 308.39 113.767 305.806C113.767 303.234 115.053 301.779 116.942 301.779C118.289 301.779 119.2 302.474 119.532 303.633ZM128.954 312.181C131.248 312.181 132.794 311.064 133.156 309.344L130.777 309.187C130.518 309.893 129.854 310.261 128.996 310.261C127.711 310.261 126.896 309.41 126.896 308.028V308.022H133.21V307.315C133.21 304.164 131.303 302.607 128.852 302.607C126.123 302.607 124.354 304.544 124.354 307.406C124.354 310.346 126.099 312.181 128.954 312.181ZM126.896 306.428C126.95 305.371 127.753 304.526 128.894 304.526C130.011 304.526 130.783 305.323 130.789 306.428H126.896ZM140.331 302.727H138.586V300.506H136.014V302.727H134.747V304.659H136.014V309.489C136.002 311.306 137.24 312.205 139.105 312.127C139.769 312.103 140.24 311.97 140.5 311.885L140.095 309.972C139.968 309.996 139.697 310.056 139.455 310.056C138.942 310.056 138.586 309.863 138.586 309.151V304.659H140.331V302.727ZM146.96 312H149.532V302.727H146.96V312ZM148.252 301.532C149.019 301.532 149.647 300.946 149.647 300.228C149.647 299.516 149.019 298.93 148.252 298.93C147.492 298.93 146.864 299.516 146.864 300.228C146.864 300.946 147.492 301.532 148.252 301.532ZM154.674 306.639C154.68 305.444 155.392 304.744 156.431 304.744C157.463 304.744 158.085 305.42 158.079 306.555V312H160.651V306.096C160.651 303.935 159.383 302.607 157.451 302.607C156.075 302.607 155.079 303.283 154.662 304.363H154.553V302.727H152.102V312H154.674V306.639ZM172.564 302.727H170.82V300.506H168.248V302.727H166.98V304.659H168.248V309.489C168.236 311.306 169.473 312.205 171.339 312.127C172.003 312.103 172.474 311.97 172.733 311.885L172.329 309.972C172.202 309.996 171.93 310.056 171.689 310.056C171.176 310.056 170.82 309.863 170.82 309.151V304.659H172.564V302.727ZM178.84 312.181C181.653 312.181 183.403 310.255 183.403 307.4C183.403 304.526 181.653 302.607 178.84 302.607C176.026 302.607 174.276 304.526 174.276 307.4C174.276 310.255 176.026 312.181 178.84 312.181ZM178.852 310.189C177.554 310.189 176.89 309 176.89 307.382C176.89 305.764 177.554 304.569 178.852 304.569C180.125 304.569 180.789 305.764 180.789 307.382C180.789 309 180.125 310.189 178.852 310.189ZM191.532 308.052C191.538 309.295 190.687 309.947 189.763 309.947C188.791 309.947 188.163 309.265 188.157 308.173V302.727H185.586V308.631C185.592 310.799 186.859 312.121 188.725 312.121C190.119 312.121 191.122 311.402 191.538 310.316H191.635V312H194.104V302.727H191.532V308.052ZM200.861 312.181C203.33 312.181 204.881 310.732 205.002 308.601H202.575C202.424 309.591 201.772 310.147 200.891 310.147C199.689 310.147 198.911 309.138 198.911 307.364C198.911 305.613 199.695 304.611 200.891 304.611C201.832 304.611 202.436 305.233 202.575 306.156H205.002C204.893 304.013 203.269 302.607 200.848 302.607C198.035 302.607 196.297 304.556 196.297 307.4C196.297 310.219 198.005 312.181 200.861 312.181ZM209.73 306.639C209.736 305.444 210.467 304.744 211.517 304.744C212.561 304.744 213.177 305.414 213.171 306.555V312H215.743V306.096C215.749 303.923 214.469 302.607 212.537 302.607C211.131 302.607 210.189 303.271 209.766 304.363H209.658V299.636H207.158V312H209.73V306.639Z" fill="white"/>
</g>
<defs>
<clipPath id="clip0_48_247">
<rect width="327" height="330" fill="white"/>
</clipPath>
</defs>
</svg>
